<svg xmlns="http://www.w3.org/2000/svg" viewBox="0 0 512 512">
<defs>
<linearGradient id="bg" x1="0" y1="0" x2="1" y2="1">
<stop offset="0%" stop-color="#fbbf24"/>
<stop offset="100%" stop-color="#d97706"/>
</linearGradient>
</defs>
<rect width="512" height="512" rx="96" fill="url(#bg)"/>
<g transform="translate(108,120)">
<rect x="8" y="40" width="200" height="150" rx="8" fill="#fff" opacity=".95"/>
<rect x="8" y="40" width="200" height="24" rx="8" fill="#fef3c7"/>
<rect x="16" y="76" width="120" height="6" rx="3" fill="#d1d5db"/>
<rect x="16" y="92" width="160" height="6" rx="3" fill="#d1d5db"/>
<rect x="16" y="108" width="140" height="6" rx="3" fill="#d1d5db"/>
<rect x="16" y="140" width="60" height="32" rx="6" fill="#fbbf24"/>
<text x="46" y="160" font-family="sans-serif" font-size="16" font-weight="700" fill="#fff" text-anchor="middle">✓</text>
</g>
<circle cx="340" cy="160" r="68" fill="#fff" opacity=".95"/>
<g transform="translate(340,160)" fill="none" stroke="#d97706" stroke-width="6" stroke-linecap="round">
<path d="M0,0 L0,-48" transform="rotate(-30)"/>
<path d="M0,0 L0,-48" transform="rotate(120)"/>
<path d="M0,-38 A38,38 0 0,1 19,-33"/>
</g>
<circle cx="340" cy="160" r="10" fill="#d97706"/>
<g transform="translate(340,160)" fill="#d97706">
<rect x="-3" y="-52" width="6" height="14" rx="3" transform="rotate(-30)"/>
<rect x="-3" y="-52" width="6" height="14" rx="3" transform="rotate(120)"/>
</g>
</svg>
